<svg class="svg-ico-like" xmlns="http://www.w3.org/2000/svg" width="32" height="32" viewBox="0 0 378.9 378.9"><path d="M348.2 54.5c-19.9-19.9-46.3-30.8-74.4-30.8 -28.1 0-54.6 10.9-74.4 30.8l-9.8 9.8 -9.8-9.8c-19.9-19.9-46.3-30.8-74.4-30.8 -28.1 0-54.6 10.9-74.4 30.8 -41 41.1-41 107.8 0 148.9l147.1 147.1c2.4 2.4 5.4 3.9 8.5 4.5 1 0.2 2.1 0.3 3.2 0.3 4.2 0 8.3-1.6 11.5-4.8l147.1-147.1C389.2 162.4 389.2 95.6 348.2 54.5zM325.2 180.4L189.5 316.1 53.8 180.4c-28.4-28.4-28.4-74.5 0-102.9 13.7-13.7 32-21.3 51.4-21.3 19.4 0 37.7 7.6 51.4 21.3l21.3 21.3c6.1 6.1 16.9 6.1 23 0l21.3-21.3c13.7-13.7 32-21.3 51.4-21.3 19.4 0 37.7 7.6 51.4 21.3C353.5 105.9 353.5 152 325.2 180.4z"></path></svg>