<svg class="svg-ico-ico" xmlns="http://www.w3.org/2000/svg" width="32" height="32" viewBox="0 0 83.9 82"><path d="M58 55.2c-3.8-2-5.3-0.6-7.1 1.4 -6.6 7.3-13.6 4.9-18.4 0l-7.1-7.1c-4.9-4.7-7.3-11.8 0-18.4 2-1.8 3.5-3.3 1.4-7.1l-9.2-12c-3.1-3.1-6.1-0.9-8.5 1.4C-5.7 28.3-1.6 40.9 14.8 57.3l9.9 9.9c16.4 16.4 29 20.5 43.8 5.7 2.3-2.4 4.5-5.4 1.4-8.5L58 55.2zM37.9 0c-1.2 0-2.1 1.1-2.1 2.1 0.1 1 1.1 1.9 2.1 1.9 23.2 0 42 18.8 42 42 0 1.1 0.9 2 2 2 1.1 0 2-1 2-2C83.9 20.6 63.3 0 37.9 0zM37.9 12c-1.2 0-2.1 1.1-2.1 2.1 0.1 1 1.1 1.9 2.1 1.9 16.6 0 30 13.4 30 30 0 1.1 0.9 2 2 2 1.1 0 2-1 2-2C71.9 27.2 56.7 12 37.9 12z"></path></svg>