<svg class="svg-ico-ico" width="24" height="24" xmlns="http://www.w3.org/2000/svg" viewBox="0 0 89.6 89.6"><path d="M86.1 27.4c-2.3-5.3-5.5-10.1-9.6-14.2C72.4 9 67.6 5.8 62.2 3.5 56.7 1.2 50.8 0 44.8 0S32.9 1.2 27.4 3.5c-5.3 2.3-10.1 5.5-14.2 9.6 -4.1 4.1-7.3 8.9-9.6 14.2C1.2 32.9 0 38.7 0 44.8s1.2 11.9 3.5 17.4c2.3 5.3 5.5 10.1 9.6 14.2 4.1 4.1 8.9 7.3 14.2 9.6 5.5 2.3 11.4 3.5 17.4 3.5s11.9-1.2 17.4-3.5c5.3-2.3 10.1-5.5 14.2-9.6 4.1-4.1 7.3-8.9 9.6-14.2 2.3-5.5 3.5-11.4 3.5-17.4S88.4 32.9 86.1 27.4zM87.5 44.8c0 23.6-19.2 42.7-42.7 42.7 -23.6 0-42.7-19.2-42.7-42.7 0-23.6 19.2-42.7 42.7-42.7C68.4 2.1 87.5 21.2 87.5 44.8z"></path><polygon points="33.3 32.8 10.2 32.8 10.2 57 33.6 57 33.7 53.9 44.8 65 55.7 54 55.7 57 79.4 57 79.4 32.8 55.7 32.8 44.9 44.3 "></polygon></svg>